<svg xmlns="http://www.w3.org/2000/svg" viewBox="0 0 400 300" width="406" height="306" class="illustration styles_illustrationTablet__1DWOa"><g id="_73_meditation_outline" data-name="#73_meditation_outline"><path d="M192.15,157.1c-3.83-2.46-12.19-10.93-14.65-7.1-12.83,20-29.87,42.19-34.86,45.74,0,0-6.48-4.77-7.77-4.29-2.78,1.05.81,5.45.81,5.45-3.39-.57-10.31-.81-8.92,4.87,1.08,4.41,14.94,6,16,6,7,0,16.59-6.18,29.51-23.26,8.49-11.23,15.68-21.65,16-22.13C190.77,158.59,196,159.56,192.15,157.1Z" fill="#ffc9b0"></path><path d="M142.81,208.8c-.16,0-15.67-1.25-17-6.79a4.68,4.68,0,0,1,.87-4.55c1.63-1.75,4.67-2,7-1.8a5,5,0,0,1-.74-3.46,2.46,2.46,0,0,1,1.61-1.68c1.14-.43,3.86.91,8.1,4,5.61-4.67,22-26.3,34-45a3,3,0,0,1,2.09-1.39c2.86-.48,7,2.8,10.62,5.68,1.26,1,2.44,1.94,3.32,2.51h0c1,.61,1.88,1.29,1.82,2.28s-1,1.36-1.91,1.8a7.5,7.5,0,0,0-3.45,2.61c-.28.45-7.45,10.85-16,22.19C161.24,200.84,151.05,208.8,142.81,208.8Zm-10.34-11.18c-1.81,0-3.52.32-4.34,1.2a2.78,2.78,0,0,0-.4,2.71c.81,3.31,13,5.27,15.08,5.27,7.58,0,17.24-7.69,28.71-22.86,8.55-11.3,15.67-21.63,15.95-22.07a9.33,9.33,0,0,1,4.29-3.34l.42-.2c-.14-.1-.32-.23-.57-.39h0c-1-.62-2.19-1.59-3.48-2.62-2.82-2.23-7.07-5.62-9.06-5.28a1,1,0,0,0-.72.5c-12.81,19.93-29.89,42.29-35.14,46a1,1,0,0,1-1.17,0c-2.64-2-6-4-6.9-4.13-.25.11-.28.24-.3.31-.22.79.84,2.58,1.62,3.54a1,1,0,0,1,.09,1.13,1,1,0,0,1-1,.49A18.8,18.8,0,0,0,132.47,197.62Z" fill="#093f68"></path><path d="M140.32,204h-.1c-2.54-.26-4.28-1.16-5.2-2.68a5.91,5.91,0,0,1-.27-4.83,1,1,0,1,1,1.86.74,3.87,3.87,0,0,0,.13,3.07c.57.94,1.81,1.52,3.68,1.71a1,1,0,0,1-.1,2Z" fill="#093f68"></path><path d="M208.23,157.1c3.83-2.46,12.19-10.93,14.64-7.1,12.84,20,29.88,42.19,34.87,45.74,0,0,6.48-4.77,7.77-4.29,2.78,1.05-.81,5.45-.81,5.45,3.39-.57,10.31-.81,8.92,4.87-1.08,4.41-14.94,6-16.05,6-7,0-16.59-6.18-29.51-23.26-8.49-11.23-15.68-21.65-16-22.13C209.61,158.59,204.4,159.56,208.23,157.1Z" fill="#ffc9b0"></path><path d="M257.57,208.8c-8.24,0-18.43-8-30.31-23.66-8.55-11.31-15.75-21.74-16-22.19a7.55,7.55,0,0,0-3.45-2.61c-.95-.44-1.84-.85-1.91-1.8s.86-1.67,1.82-2.28h0c.88-.57,2.06-1.51,3.32-2.51,3.64-2.88,7.76-6.15,10.62-5.68a3,3,0,0,1,2.09,1.39c12,18.73,28.43,40.36,34,45,4.24-3.06,7-4.4,8.1-4a2.46,2.46,0,0,1,1.61,1.68,5,5,0,0,1-.74,3.46c2.31-.15,5.36.05,7,1.8a4.68,4.68,0,0,1,.87,4.55C273.24,207.55,257.72,208.8,257.57,208.8ZM208.2,158.33l.42.2a9.33,9.33,0,0,1,4.29,3.34c.28.44,7.43,10.8,16,22.07,11.47,15.17,21.13,22.86,28.71,22.86,2.09,0,14.27-2,15.08-5.27a2.78,2.78,0,0,0-.4-2.71c-1.29-1.39-4.79-1.37-7.39-.93a1,1,0,0,1-.94-1.62c.78-1,1.84-2.75,1.62-3.54,0-.07-.05-.2-.3-.31-.9.09-4.26,2.18-6.9,4.13a1,1,0,0,1-1.17,0c-5.25-3.73-22.33-26.09-35.14-46a1,1,0,0,0-.72-.5c-2-.34-6.24,3.05-9.06,5.28-1.29,1-2.52,2-3.48,2.62C208.52,158.1,208.34,158.23,208.2,158.33Z" fill="#093f68"></path><path d="M260.06,204a1,1,0,0,1-.1-2c1.87-.19,3.11-.77,3.68-1.71a3.9,3.9,0,0,0,.13-3.07,1,1,0,0,1,.56-1.3,1,1,0,0,1,1.29.56,5.85,5.85,0,0,1-.26,4.83c-.92,1.52-2.66,2.42-5.2,2.68Z" fill="#093f68"></path><path d="M251.89,211.47s-16.7,4.09-26.41-10.12H174.79c-9.71,14.21-26.42,10.12-26.42,10.12l52.49,19.47Z" fill="#576be7"></path><path d="M200.86,231.94a1,1,0,0,1-.34-.06L148,212.41a1,1,0,0,1,.58-1.91c.66.16,16.16,3.74,25.35-9.72a1,1,0,0,1,.83-.43h50.69a1,1,0,0,1,.83.43c9.19,13.46,24.69,9.88,25.35,9.72a1,1,0,0,1,.59,1.9l-51,19.48A1,1,0,0,1,200.86,231.94Zm-45.61-19,45.61,16.92L245.18,213c-5.88-.24-14.27-2.25-20.22-10.61H175.31C169.42,210.64,161.12,212.68,155.25,213Z" fill="#093f68"></path><path d="M126.18,221.76a14,14,0,0,0,14,14h48.15V220.28L142,207.92A14,14,0,0,0,126.18,221.76Z" fill="#576be7"></path><path d="M188.31,236.74H140.16a15,15,0,1,1,2-29.81l.13,0,46.32,12.37a1,1,0,0,1,.74,1v15.46A1,1,0,0,1,188.31,236.74ZM140.16,208.8a13,13,0,1,0,0,25.94h47.15V221.05L141.8,208.9A12.89,12.89,0,0,0,140.16,208.8Z" fill="#093f68"></path><path d="M187.92,145.11h24.43a13.53,13.53,0,0,1,13.53,13.53v32.73a0,0,0,0,1,0,0H174.39a0,0,0,0,1,0,0V158.64A13.53,13.53,0,0,1,187.92,145.11Z" fill="#576be7"></path><path d="M225.88,192.36H174.39a1,1,0,0,1-1-1V158.64a14.55,14.55,0,0,1,14.53-14.54h24.43a14.55,14.55,0,0,1,14.53,14.54v32.72A1,1,0,0,1,225.88,192.36Zm-50.49-2h49.49V158.64a12.55,12.55,0,0,0-12.53-12.54H187.92a12.55,12.55,0,0,0-12.53,12.54Z" fill="#093f68"></path><circle cx="176.75" cy="85.32" r="21.07" fill="#725858"></circle><path d="M176.75,107.39a22.07,22.07,0,1,1,22.07-22.07A22.09,22.09,0,0,1,176.75,107.39Zm0-42.13a20.07,20.07,0,1,0,20.07,20.06A20.08,20.08,0,0,0,176.75,65.26Z" fill="#093f68"></path><path d="M199.16,73.21h0a30.25,30.25,0,0,1,30.25,30.25v20.16a0,0,0,0,1,0,0H168.9a0,0,0,0,1,0,0V103.47A30.25,30.25,0,0,1,199.16,73.21Z" fill="#725858"></path><path d="M229.41,124.63H168.9a1,1,0,0,1-1-1V103.47a31.26,31.26,0,1,1,62.51,0v20.16A1,1,0,0,1,229.41,124.63Zm-59.51-2h58.51V103.47a29.26,29.26,0,1,0-58.51,0Z" fill="#093f68"></path><path d="M195.74,144h8.79a0,0,0,0,1,0,0V149a3.73,3.73,0,0,1-3.73,3.73h-1.33a3.73,3.73,0,0,1-3.73-3.73V144A0,0,0,0,1,195.74,144Z" fill="#ffc9b0"></path><path d="M200.8,153.74h-1.33a4.73,4.73,0,0,1-4.73-4.73V144a1,1,0,0,1,1-1h8.79a1,1,0,0,1,1,1V149A4.74,4.74,0,0,1,200.8,153.74ZM196.74,145V149a2.74,2.74,0,0,0,2.73,2.73h1.33a2.74,2.74,0,0,0,2.73-2.73V145Z" fill="#093f68"></path><ellipse cx="175.03" cy="121.13" rx="8.54" ry="7.36" fill="#ffc9b0"></ellipse><path d="M175,129.49c-5.26,0-9.54-3.75-9.54-8.36s4.28-8.35,9.54-8.35,9.53,3.74,9.53,8.35S180.28,129.49,175,129.49Zm0-14.71c-4.16,0-7.54,2.85-7.54,6.35s3.38,6.36,7.54,6.36,7.53-2.85,7.53-6.36S179.18,114.78,175,114.78Z" fill="#093f68"></path><ellipse cx="224.79" cy="121.13" rx="8.54" ry="7.36" fill="#ffc9b0"></ellipse><path d="M224.79,129.49c-5.26,0-9.54-3.75-9.54-8.36s4.28-8.35,9.54-8.35,9.53,3.74,9.53,8.35S230.05,129.49,224.79,129.49Zm0-14.71c-4.16,0-7.54,2.85-7.54,6.35s3.38,6.36,7.54,6.36,7.53-2.85,7.53-6.36S228.94,114.78,224.79,114.78Z" fill="#093f68"></path><path d="M200.13,145.11h0a25.75,25.75,0,0,1-25.74-25.75V107.44c0-6.18,9.44-17.74,15.63-17.74,0,0,1,5.85,10.73,11,6.81,3.58,16.4,3.82,25.13-2.25v20.94A25.75,25.75,0,0,1,200.13,145.11Z" fill="#ffc9b0"></path><path d="M200.13,146.1a26.77,26.77,0,0,1-26.74-26.74V107.44c0-6.62,9.78-18.74,16.63-18.74a1,1,0,0,1,1,.83s1.12,5.47,10.21,10.26c5.76,3,15.11,4,24.09-2.19a1,1,0,0,1,1-.07,1,1,0,0,1,.54.89v20.94A26.77,26.77,0,0,1,200.13,146.1ZM189.29,90.77c-5.08.89-13.9,10.42-13.9,16.67v11.92a24.75,24.75,0,0,0,49.49,0v-19.1a25,25,0,0,1-24.59,1.3C192.38,97.39,190,92.7,189.29,90.77Z" fill="#093f68"></path><path d="M200,124.63a15.08,15.08,0,0,1-2.37-.2,1,1,0,0,1-.81-1.16,1,1,0,0,1,1.16-.81,11.2,11.2,0,0,0,3.24.08,17.63,17.63,0,0,0-2-5.3,1,1,0,1,1,1.77-.93c1.06,2,2.73,5.67,2,7.23a1.55,1.55,0,0,1-1,.88A8.34,8.34,0,0,1,200,124.63Z" fill="#093f68"></path><path d="M181.72,110.34a2,2,0,0,1,0-4l11.37-.15a2,2,0,0,1,2,2,2,2,0,0,1-2,2l-11.37.15Z" fill="#093f68"></path><path d="M219.59,110.13h0l-11.37-.07a2,2,0,0,1,0-4h0l11.37.07a2,2,0,0,1,0,4Z" fill="#093f68"></path><path d="M186.15,117.33a9.83,9.83,0,0,1-4.06-.84,1,1,0,1,1,.88-1.79h0a8.21,8.21,0,0,0,8-1,1,1,0,1,1,1.16,1.63A10.21,10.21,0,0,1,186.15,117.33Z" fill="#093f68"></path><path d="M214.81,117.33a10.21,10.21,0,0,1-6-2,1,1,0,1,1,1.16-1.63,8.21,8.21,0,0,0,8,1,1,1,0,1,1,.88,1.79A9.83,9.83,0,0,1,214.81,117.33Z" fill="#093f68"></path><path d="M200.52,133.36a43.16,43.16,0,0,1-8.59-.91,1,1,0,1,1,.44-1.95c.1,0,9.55,2.1,15.48-.3a1,1,0,0,1,.75,1.85A21.9,21.9,0,0,1,200.52,133.36Z" fill="#093f68"></path><rect x="176.48" y="191.36" width="47.3" height="9.9" fill="#ffc9b0"></rect><path d="M223.78,202.23h-47.3a1,1,0,0,1-1-1v-9.91a1,1,0,0,1,1-1h47.3a1,1,0,0,1,1,1v9.91A1,1,0,0,1,223.78,202.23Zm-46.34-1.92h45.39v-8H177.44Z" fill="#093f68"></path><path d="M269,221.76a14,14,0,0,1-14,14H168.55a4.78,4.78,0,0,1-4.83-4.29,4.61,4.61,0,0,1,3.36-4.78l23.73-10.25a1.17,1.17,0,0,1,1.19.17l5.83,4.54,9-.85,46.32-12.36A14,14,0,0,1,269,221.76Z" fill="#ffc9b0"></path><path d="M255,236.74H168.55a5.77,5.77,0,0,1-5.83-5.22,5.61,5.61,0,0,1,4-5.79l23.67-10.22a2.13,2.13,0,0,1,2.22.31l5.5,4.27,8.56-.8L252.93,207l.13,0a15,15,0,1,1,2,29.81Zm-63.76-19.41h-.06l-23.72,10.25-.13,0a3.63,3.63,0,0,0-2.64,3.75,3.77,3.77,0,0,0,3.84,3.36H255a13,13,0,1,0-1.64-25.84l-46.25,12.35-.17,0-9,.84a1,1,0,0,1-.7-.21l-5.83-4.53A.27.27,0,0,0,191.26,217.33Z" fill="#093f68"></path><path d="M269,221.76a14,14,0,0,1-14,14H206.87V220.28l46.32-12.36A14,14,0,0,1,269,221.76Z" fill="#576be7"></path><path d="M255,236.74H206.87a1,1,0,0,1-1-1V220.28a1,1,0,0,1,.74-1L252.93,207l.13,0a15,15,0,1,1,2,29.81Zm-47.15-2H255a13,13,0,1,0-1.64-25.84l-45.51,12.15Z" fill="#093f68"></path><path d="M304.06,236.74H95.93a1,1,0,0,1,0-2H304.06a1,1,0,0,1,0,2Z" fill="#093f68"></path><path d="M102.15,221.21s-7.25-14.78-6.24-24.76c0,0,5.83,2.64,8.64,10.42,4.29,11.89,3.3,14.35,3.3,14.35Z" fill="#70cc40"></path><path d="M107.85,222.22h-5.7a1,1,0,0,1-.89-.56c-.31-.62-7.37-15.15-6.34-25.3a1,1,0,0,1,.49-.77,1,1,0,0,1,.91-.05c.26.12,6.26,2.91,9.17,11,4.21,11.66,3.48,14.59,3.29,15.06A1,1,0,0,1,107.85,222.22Zm-5.06-2H107c0-1.29-.4-4.83-3.35-13a18.54,18.54,0,0,0-6.79-9C96.7,206.54,101.59,217.61,102.79,220.21Z" fill="#093f68"></path><path d="M105.6,220.49s-5.44-21.07,2.38-35.17c0,0,4.51,5.15,5.59,17.63a31.56,31.56,0,0,1-3.26,17.23Z" fill="#70cc40"></path><path d="M105.6,221.49a1,1,0,0,1-1-.75c-.23-.87-5.45-21.62,2.48-35.91a1,1,0,0,1,.77-.51,1,1,0,0,1,.85.34c.2.22,4.74,5.55,5.83,18.2a32.14,32.14,0,0,1-3.39,17.82,1,1,0,0,1-.79.5l-4.71.31Zm2.51-34.23c-5.69,12-2.57,28.38-1.73,32.18l3.31-.22A31.49,31.49,0,0,0,112.57,203C111.82,194.42,109.42,189.42,108.11,187.26Z" fill="#093f68"></path><path d="M108,219.83s1.69-14.06,13.06-23.24c0,0,3.35,10.48-6.05,24.48Z" fill="#70cc40"></path><path d="M115,222.07h-.17l-7-1.24a1,1,0,0,1-.82-1.11c.07-.59,1.86-14.57,13.42-23.9a1,1,0,0,1,.91-.18,1,1,0,0,1,.67.65c.14.45,3.39,11.1-6.17,25.35A1,1,0,0,1,115,222.07Zm-5.86-3,5.39,1c6.56-10.09,6.34-18.25,5.87-21.53C112.14,205.85,109.68,215.94,109.1,219Z" fill="#093f68"></path><polygon points="115.74 235.63 101.43 235.63 99.31 218.22 117.85 218.22 115.74 235.63" fill="#f56132"></polygon><path d="M115.74,236.63H101.43a1,1,0,0,1-1-.88l-2.12-17.41a1,1,0,0,1,1-1.12h18.54a1,1,0,0,1,.75.33,1,1,0,0,1,.25.79l-2.12,17.41A1,1,0,0,1,115.74,236.63Zm-13.42-2h12.53l1.88-15.41H100.44Z" fill="#093f68"></path><path d="M277.06,216.14h18a0,0,0,0,1,0,0v13.59a6,6,0,0,1-6,6h-6a6,6,0,0,1-6-6V216.14A0,0,0,0,1,277.06,216.14Z" fill="#ffbc0e"></path><path d="M289.06,236.74h-6a7,7,0,0,1-7-7v-13.6a1,1,0,0,1,1-1h18a1,1,0,0,1,1,1v13.6A7,7,0,0,1,289.06,236.74Zm-11-19.6v12.6a5,5,0,0,0,5,5h6a5,5,0,0,0,5-5v-12.6Z" fill="#093f68"></path><path d="M297.81,229.44h-2.74a1,1,0,0,1-1-1v-8.92a1,1,0,0,1,1-1h2.74a5.46,5.46,0,0,1,0,10.92Zm-1.74-2h1.74a3.46,3.46,0,1,0,0-6.92h-1.74Z" fill="#093f68"></path></g></svg>